<svg viewBox="0 0 400 80" xmlns="http://www.w3.org/2000/svg">
  <defs>
    <!-- Neon glow effect -->
    <filter id="neonGlow" x="-50%" y="-50%" width="200%" height="200%">
      <feGaussianBlur stdDeviation="2" result="coloredBlur"/>
      <feMerge> 
        <feMergeNode in="coloredBlur"/>
        <feMergeNode in="SourceGraphic"/>
      </feMerge>
    </filter>
    
    <!-- Subtle outer glow -->
    <filter id="subtleGlow" x="-20%" y="-20%" width="140%" height="140%">
      <feGaussianBlur stdDeviation="1" result="coloredBlur"/>
      <feMerge> 
        <feMergeNode in="coloredBlur"/>
        <feMergeNode in="SourceGraphic"/>
      </feMerge>
    </filter>
  </defs>
  
  <!-- Background (transparent for versatility) -->
  <rect width="400" height="80" fill="none"/>
  
  <!-- Main text -->
  <g font-family="Arial, sans-serif" font-weight="300" font-size="32" fill="#ffffff">
    
    <!-- J -->
    <g transform="translate(20, 50)">
      <path d="M 0 -30 L 0 5 Q 0 15 -10 15 Q -20 15 -20 5" 
            stroke="#ffffff" 
            stroke-width="2.5" 
            fill="none" 
            stroke-linecap="round"/>
      <!-- Neon accent dot -->
      <circle cx="0" cy="-30" r="2" fill="#00d1ff" filter="url(#neonGlow)"/>
    </g>
    
    <!-- A -->
    <g transform="translate(60, 50)">
      <path d="M -12 15 L 0 -25 L 12 15 M -8 0 L 8 0" 
            stroke="#ffffff" 
            stroke-width="2.5" 
            fill="none" 
            stroke-linecap="round" 
            stroke-linejoin="round"/>
    </g>
    
    <!-- R -->
    <g transform="translate(100, 50)">
      <path d="M -10 15 L -10 -25 L 5 -25 Q 10 -25 10 -15 Q 10 -5 5 -5 L -10 -5 M 2 -5 L 10 15" 
            stroke="#00d1ff" 
            stroke-width="2.5" 
            fill="none" 
            stroke-linecap="round" 
            stroke-linejoin="round"
            filter="url(#neonGlow)"/>
    </g>
    
    <!-- A -->
    <g transform="translate(140, 50)">
      <path d="M -12 15 L 0 -25 L 12 15 M -8 0 L 8 0" 
            stroke="#ffffff" 
            stroke-width="2.5" 
            fill="none" 
            stroke-linecap="round" 
            stroke-linejoin="round"/>
    </g>
    
    <!-- M -->
    <g transform="translate(190, 50)">
      <path d="M -15 15 L -15 -25 L 0 -5 L 15 -25 L 15 15" 
            stroke="#ffffff" 
            stroke-width="2.5" 
            fill="none" 
            stroke-linecap="round" 
            stroke-linejoin="round"/>
      <!-- Neon accent on peak -->
      <circle cx="0" cy="-5" r="1.5" fill="#00d1ff" filter="url(#neonGlow)"/>
    </g>
    
    <!-- I -->
    <g transform="translate(230, 50)">
      <line x1="0" y1="-25" x2="0" y2="15" 
            stroke="#ffffff" 
            stroke-width="2.5" 
            stroke-linecap="round"/>
      <!-- Neon accent dot -->
      <circle cx="0" cy="-30" r="2" fill="#00d1ff" filter="url(#neonGlow)"/>
    </g>
    
    <!-- E -->
    <g transform="translate(270, 50)">
      <path d="M -8 15 L -8 -25 L 10 -25 M -8 -5 L 6 -5 M -8 15 L 10 15" 
            stroke="#00d1ff" 
            stroke-width="2.5" 
            fill="none" 
            stroke-linecap="round" 
            stroke-linejoin="round"
            filter="url(#subtleGlow)"/>
    </g>
    
  </g>
  
  <!-- Subtle underline accent -->
  <line x1="20" y1="65" x2="285" y2="65" 
        stroke="#00d1ff" 
        stroke-width="1" 
        opacity="0.6"/>
  
  <!-- Futuristic corner brackets -->
  <g stroke="#00d1ff" stroke-width="1.5" fill="none" opacity="0.8">
    <!-- Top left -->
    <path d="M 15 20 L 15 15 L 20 15"/>
    <!-- Top right -->
    <path d="M 385 15 L 390 15 L 390 20"/>
    <!-- Bottom left -->
    <path d="M 20 65 L 15 65 L 15 60"/>
    <!-- Bottom right -->
    <path d="M 390 60 L 390 65 L 385 65"/>
  </g>
  
</svg>